:SAMPLES-PER-SECOND 30
:FULLY-SPECIFIED
:DEGREES
573
root  -23.7791 34.8124 -4.99566 -171.181 47.3415 -178.693
RightUpLeg  -12.7016 -5.69206 0.383727
RightLeg  6.14712 5.92259 0.255982
RightFoot  8.13604 -0.0355042 0.98731
RightToes  -31.154 -0.151948 -0.259906
Spine  -0.442499 1.35837 -0.227672
Spine1  -0.96663 2.98464 0.161597
HEad  -70.4312 -14.4722 1.63212
LeftShoulder1  -1.94126e-019 -3.10601e-018 -2.51263e-017
LeftArm  -6.74511 22.1674 -82.355
LeftForeArm  26.6319 -21.5552 -3.52751
LeftHand  -0.391966 -0.468574 7.86779
RightShoulder  -4.96962e-017 0 -2.36833e-017
RightArm  -7.36287 1.28332 82.0292
RightForeArm  51.3618 71.7402 28.8706
RightHand  0.134754 -7.62174 -8.57424
LeftUpLeg  -15.3087 -3.86355 0.617046
LeftLeg  15.2699 12.8188 2.60275
LeftFoot  2.48243 -0.0113512 0.766618
LeftToes  -20.4295 1.34695e-006 1.12385e-007
574
root  -23.4933 34.8555 -5.18891 -172.593 48.5376 -178.965
RightUpLeg  -10.9057 -5.5053 0.0995202
RightLeg  5.82041 6.85228 0.25688
RightFoot  7.84956 -0.0401831 1.07202
RightToes  -31.8436 -0.15682 -0.264573
Spine  -0.79155 1.39125 -0.221178
Spine1  -1.63738 2.97872 0.227524
HEad  -67.5562 -13.9012 1.90372
LeftShoulder1  -1.94126e-019 -3.10601e-018 -2.51263e-017
LeftArm  -5.27277 21.9481 -82.3434
LeftForeArm  28.3185 -19.7089 -3.30317
LeftHand  -0.387537 -0.635424 7.57855
RightShoulder  -4.96962e-017 0 -2.36833e-017
RightArm  -4.21898 1.29608 82.4191
RightForeArm  44.3261 66.7233 21.6914
RightHand  0.341456 -10.7726 -8.26959
LeftUpLeg  -12.693 -3.27446 0.318999
LeftLeg  13.9146 13.4467 2.40183
LeftFoot  2.3652 -0.0124524 0.755918
LeftToes  -20.2522 1.34695e-006 1.12385e-007
575
root  -23.2551 34.8762 -5.32946 -173.386 49.8328 -178.958
RightUpLeg  -9.7467 -5.6448 0.0630347
RightLeg  5.66596 8.21263 0.285466
RightFoot  7.6004 -0.0483299 1.20585
RightToes  -33.1473 -0.166183 -0.273234
Spine  -1.05129 1.43458 -0.20641
Spine1  -2.12424 2.9716 0.311557
HEad  -65.8887 -13.3001 2.75746
LeftShoulder1  -1.94126e-019 -3.10601e-018 -2.51263e-017
LeftArm  -4.58704 21.2523 -82.3717
LeftForeArm  30.9958 -17.8605 -3.04273
LeftHand  -0.379522 -1.12008 6.91024
RightShoulder  -4.96962e-017 0 -2.36833e-017
RightArm  0.134314 1.93663 82.4991
RightForeArm  34.1641 56.1258 13.8131
RightHand  0.354331 -10.1339 -9.57762
LeftUpLeg  -10.9483 -2.10035 0.265308
LeftLeg  13.2448 13.597 2.26628
LeftFoot  2.088 -0.00950383 0.683086
LeftToes  -20.6492 1.34695e-006 1.12385e-007
576
root  -23.0515 34.8708 -5.43006 -174.261 51.0306 -178.94
RightUpLeg  -8.77459 -5.4525 0.0155948
RightLeg  5.95407 9.10457 0.36194
RightFoot  7.10433 -0.0497515 1.24319
RightToes  -34.4338 -0.175614 -0.28157
Spine  -1.10926 1.4311 -0.233098
Spine1  -2.24464 2.96228 0.258874
HEad  -65.1545 -12.094 3.51437
LeftShoulder1  -1.94126e-019 -3.10601e-018 -2.51263e-017
LeftArm  -4.70731 20.5792 -82.3694
LeftForeArm  32.7003 -16.5491 -2.83728
LeftHand  -0.38547 -1.16427 6.97292
RightShoulder  -4.96962e-017 0 -2.36833e-017
RightArm  4.73519 5.59667 84.4554
RightForeArm  34.434 35.9592 6.07286
RightHand  -0.26828 -3.19023 -13.6534
LeftUpLeg  -9.54795 -0.840809 0.275093
LeftLeg  13.2541 13.5194 2.25581
LeftFoot  1.67536 -0.00610231 0.578926
LeftToes  -20.8929 1.34695e-006 1.12385e-007
577
root  -22.8846 34.8376 -5.48482 -175.041 52.0714 -178.695
RightUpLeg  -7.91782 -5.17314 0.113105
RightLeg  6.48773 9.80297 0.480562
RightFoot  6.67942 -0.0497003 1.25906
RightToes  -36.2355 -0.189131 -0.292885
Spine  -0.902357 1.72962 0.0431507
Spine1  -1.82686 3.58314 0.797521
HEad  -65.3439 -11.7019 3.34499
LeftShoulder1  -1.94126e-019 -3.10601e-018 -2.51263e-017
LeftArm  -3.06166 19.2133 -82.9789
LeftForeArm  32.161 -15.7532 -2.70715
LeftHand  -0.394129 -0.91447 7.38802
RightShoulder  -4.96962e-017 0 -2.36833e-017
RightArm  6.04013 10.0076 86.7677
RightForeArm  51.0319 17.6541 1.82834
RightHand  -1.34361 0.134599 -27.8993
LeftUpLeg  -8.54184 0.0329524 0.474522
LeftLeg  14.0009 13.5719 2.44463
LeftFoot  1.06061 -0.00250893 0.432647
LeftToes  -20.3344 1.34695e-006 1.12385e-007
578
root  -22.7838 34.8154 -5.50843 -175.531 52.3942 -178.286
RightUpLeg  -7.17326 -5.62506 0.307989
RightLeg  6.87385 10.5281 0.586547
RightFoot  6.25077 -0.0485689 1.25906
RightToes  -37.6275 -0.199814 -0.301332
Spine  -0.544372 2.39018 0.102214
Spine1  -1.07965 4.86822 0.933807
HEad  -67.0836 -13.1479 4.55317
LeftShoulder1  -1.94126e-019 -3.10601e-018 -2.51263e-017
LeftArm  -2.43947 17.5052 -83.2269
LeftForeArm  33.5482 -17.5655 -3.02341
LeftHand  -0.406931 -1.34023 7.17571
RightShoulder  -4.96962e-017 0 -2.36833e-017
RightArm  8.97294 8.48118 84.8029
RightForeArm  54.0885 22.0311 2.09505
RightHand  -0.227184 -4.68296 -37.1628
LeftUpLeg  -8.09419 -0.00608285 0.755544
LeftLeg  15.14 13.8447 2.77472
LeftFoot  0.530949 -0.000652868 0.302517
LeftToes  -19.4644 1.34695e-006 1.12385e-007
579
root  -22.7427 34.804 -5.52308 -175.538 51.6366 -178.079
RightUpLeg  -7.09077 -6.56961 0.41276
RightLeg  7.37221 10.6803 0.687638
RightFoot  5.82864 -0.043378 1.20062
RightToes  -38.2432 -0.204603 -0.302549
Spine  -0.413537 2.59554 -0.0939294
Spine1  -0.832406 5.3041 0.524951
HEad  -68.6597 -13.9344 6.71834
LeftShoulder1  -1.94126e-019 -3.10601e-018 -2.51263e-017
LeftArm  -2.518 17.3239 -82.8745
LeftForeArm  31.9506 -21.0422 -3.48035
LeftHand  -0.401005 -1.12067 7.29374
RightShoulder  -4.96962e-017 0 -2.36833e-017
RightArm  5.32627 3.03049 81.262
RightForeArm  42.1379 40.5326 6.87966
RightHand  -0.727197 -2.08349 -25.2162
LeftUpLeg  -8.45164 -0.760204 0.912282
LeftLeg  16.1332 13.8033 3.01342
LeftFoot  0.294158 -0.000215542 0.245629
LeftToes  -19.0217 1.34695e-006 1.12385e-007
580
root  -22.7 34.8049 -5.5275 -175.423 50.4389 -177.991
RightUpLeg  -6.89144 -7.33263 0.507968
RightLeg  7.28598 10.2483 0.644685
RightFoot  5.55391 -0.0361078 1.11201
RightToes  -38.0518 -0.20311 -0.300741
Spine  -0.325274 2.23249 -0.0946966
Spine1  -0.673359 4.60281 0.51106
HEad  -69.7124 -13.3419 7.50383
LeftShoulder1  -1.94126e-019 -3.10601e-018 -2.51263e-017
LeftArm  -2.73646 18.3318 -82.5625
LeftForeArm  27.4666 -24.458 -3.87361
LeftHand  -0.37461 -0.807868 7.13926
RightShoulder  -4.96962e-017 0 -2.36833e-017
RightArm  1.71693 -0.246221 79.1691
RightForeArm  38.1745 56.7238 13.79
RightHand  -0.351782 -2.62224 -14.4419
LeftUpLeg  -8.61952 -0.999289 1.07841
LeftLeg  16.1352 12.923 2.82525
LeftFoot  0.173432 0.0010442 0.214702
LeftToes  -19.3586 1.34695e-006 1.12385e-007
581
root  -22.6608 34.8154 -5.50976 -175.361 49.5037 -178.052
RightUpLeg  -6.64818 -7.33162 0.567063
RightLeg  6.86979 9.32614 0.519458
RightFoot  5.53583 -0.0284311 1.01711
RightToes  -37.5698 -0.199367 -0.297292
Spine  -0.40175 1.626 -0.133984
Spine1  -0.826405 3.34722 0.46399
HEad  -69.6652 -11.9757 6.97089
LeftShoulder1  -1.94126e-019 -3.10601e-018 -2.51263e-017
LeftArm  -3.57493 20.1564 -82.0713
LeftForeArm  24.7786 -27.4506 -4.53574
LeftHand  -0.37346 -0.724957 7.20703
RightShoulder  -4.96962e-017 0 -2.36833e-017
RightArm  0.34203 1.22483 79.8784
RightForeArm  41.2806 59.9861 15.6516
RightHand  -0.267727 -3.20374 -13.7073
LeftUpLeg  -8.53024 -1.02801 1.19397
LeftLeg  15.5031 12.1078 2.51155
LeftFoot  0.395619 -0.000328517 0.256783
LeftToes  -20.9933 1.34695e-006 1.12385e-007
582
root  -22.6233 34.8413 -5.49137 -175.387 49.1469 -178.295
RightUpLeg  -6.60621 -6.91749 0.517781
RightLeg  6.59942 8.5916 0.438316
RightFoot  5.65368 -0.0235233 0.961263
RightToes  -36.7583 -0.193118 -0.29359
Spine  -0.578819 1.21861 -0.266712
Spine1  -1.17499 2.49294 0.225211
HEad  -68.3961 -10.993 5.78404
LeftShoulder1  -1.94126e-019 -3.10601e-018 -2.51263e-017
LeftArm  -3.6649 21.4661 -81.8307
LeftForeArm  24.0531 -28.3032 -4.76669
LeftHand  -0.380998 -0.538944 7.56496
RightShoulder  -4.96962e-017 0 -2.36833e-017
RightArm  1.48775 4.50539 81.4857
RightForeArm  42.1749 54.153 12.0461
RightHand  -0.250328 -3.62775 -15.8361
LeftUpLeg  -8.26934 -1.11776 1.15706
LeftLeg  14.6116 11.8774 2.274
LeftFoot  0.867826 -0.00144539 0.352434
LeftToes  -22.5051 1.34695e-006 1.12385e-007
